<svg width="136" height="141" viewBox="0 0 136 141" fill="none" xmlns="http://www.w3.org/2000/svg">
<path fill-rule="evenodd" clip-rule="evenodd" d="M70.7581 2.78745L51.0809 50.0167H51.618L51.618 50.0167H62.3624L62.3625 50.0167L66.2342 40.439L72.3647 25.2744C77.1535 26.8707 87.8486 27.5624 92.3181 17.5591L105.887 23.4121C104.525 27.118 103.86 34.9905 110.031 40.6599L110.036 40.6647C110.987 41.5374 112.1 42.3579 113.397 43.1029C113.551 43.1915 113.708 43.2791 113.868 43.3656L111.31 50.0167L120.785 50.0167L121.812 50.0167C122.694 48.0875 124.131 44.6091 125.652 40.9262C126.881 37.9496 128.165 34.8394 129.257 32.3057C131.916 26.1337 129.168 23.0925 127.396 22.1085C113.303 15.3998 83.8937 1.66039 79.0011 0.372315C74.1085 -0.915756 71.4671 1.44571 70.7581 2.78745ZM45.7599 50.0167L63.585 7.44929C59.8604 6.38511 53.2092 5.32092 51.879 9.31161C49.7506 13.994 42.7448 38.3993 39.6409 50.0167H40.0989L40.0989 50.0167H45.6023L45.6023 50.0167H45.7599ZM92.052 97.9051C92.052 89.9707 98.4841 83.5386 106.419 83.5386H125.152C130.674 83.5386 135.152 88.0157 135.152 93.5386V102.272C135.152 107.794 130.674 112.272 125.152 112.272H106.419C98.4841 112.272 92.052 105.839 92.052 97.9051ZM111.207 103.226C108.269 103.226 105.886 100.844 105.886 97.905C105.886 94.9663 108.269 92.5841 111.207 92.5841C114.146 92.5841 116.528 94.9663 116.528 97.905C116.528 100.844 114.146 103.226 111.207 103.226ZM45.7599 11.1739L34.1531 50.0167H33.6165L33.6165 50.0167H29.1542L29.1542 50.0167H28.2009C30.0858 39.2122 34.248 18.4754 35.9388 14.9243C37.6037 11.4275 37.7163 11.424 44.2376 11.2223L44.2377 11.2223C44.7105 11.2077 45.2169 11.1921 45.7599 11.1739ZM23.7613 40.439H23C10.2975 40.439 0 50.7365 0 63.439V117.472C0 130.175 10.2974 140.472 23 140.472H106.831C119.533 140.472 129.831 130.175 129.831 117.472V117.06H104.29C93.711 117.06 85.1348 108.484 85.1348 97.9051C85.1348 87.3259 93.711 78.7498 104.29 78.7498H129.831V63.439C129.831 60.3857 129.236 57.4714 128.155 54.8056H15.6968C14.3744 54.8056 13.3023 53.7336 13.3023 52.4112C13.3023 51.0888 14.3744 50.0167 15.6968 50.0167H23.462L23.7613 40.439ZM99.5013 48.1544C99.5013 48.7872 99.4563 49.4091 99.3694 50.0167H75.689C75.6021 49.4091 75.5571 48.7872 75.5571 48.1544C75.5571 41.2485 80.9172 35.6502 87.5292 35.6502C94.1412 35.6502 99.5013 41.2485 99.5013 48.1544Z" fill="#EFF0F9"/>
</svg>
